<svg id="flat" height="512" viewBox="0 0 512 512" width="512" xmlns="http://www.w3.org/2000/svg"><path d="m352 382.71189v41.28811l16.97056 16.97056a24 24 0 0 0 16.97057 7.02944h46.05887v-8.7602a11.71426 11.71426 0 0 0 -6.47547-10.47754l-9.52453-4.76226-8-16v-25.28811z" fill="#9e593c"/><path d="m194.84206 438.97361a17.91446 17.91446 0 0 0 15.5541 9.02639h45.60384v-6.10277a16.01407 16.01407 0 0 0 -8.85235-14.32341l-7.14765-3.57382-13.15864-39.47591h-63.11331z" fill="#9e593c"/><path d="m488 379.72a28.27877 28.27877 0 0 1 -28.28027 28.28h-56.33985a63.97075 63.97075 0 0 1 -35.5-10.75l-9.73974-6.49a44.50818 44.50818 0 0 1 -42.64014 57.24h-27.5v-16a15.99564 15.99564 0 0 1 16-16h8l-48-16h-65.37012a54.64169 54.64169 0 0 1 -38.62988-16l-1.10986-1.11a64.798 64.798 0 0 1 -25.09009 16.93006l-21.80005 8.17994h8l22.3999 16.80005a24.01156 24.01156 0 0 1 9.6001 19.19995v4h-78.69995a18.19742 18.19742 0 0 1 -17.30005-24l-27.08008-88.01a111.269 111.269 0 0 1 106.35008-143.99h.45a111.3103 111.3103 0 0 1 71.23 25.79l17.05 14.21h52a119.9884 119.9884 0 0 1 96 48l12 16 48 16a50.55978 50.55978 0 0 1 32 32l15.71973 15.72a27.94531 27.94531 0 0 1 5.73047 8.28c.1499.29.27978.59.3999.89a28.24326 28.24326 0 0 1 2.1499 10.83z" fill="#b36f42"/><path d="m388.18408 372.88476a23.99774 23.99774 0 1 1 32.70053-32.701 7.9795 7.9795 0 0 1 -7.03609 11.81624 7.97958 7.97958 0 0 1 -6.9141-3.98607 8.00009 8.00009 0 1 0 -10.92047 10.92047 7.97958 7.97958 0 0 1 3.98605 6.9141 7.97946 7.97946 0 0 1 -11.81592 7.03626z" fill="#9e593c"/><circle cx="440" cy="360" fill="#8a3f28" r="8"/><g fill="#9e593c"><path d="m357.209 391.0355a7.67742 7.67742 0 0 1 -9.06938-3.86064 36.65249 36.65249 0 0 0 -16.31544-16.31841l-16.496-8.248a7.72114 7.72114 0 0 1 -3.45281-10.35936l.24951-.49895a7.72113 7.72113 0 0 1 10.35879-3.45262l16.49674 8.24837a52.72474 52.72474 0 0 1 23.53145 23.60042 7.68584 7.68584 0 0 1 -4.75535 10.72546z"/><path d="m158.52725 382.55771a8.01407 8.01407 0 0 1 -1.07807-10.57056 56.96788 56.96788 0 0 0 10.26974-38.74733 58.12191 58.12191 0 0 0 -16.99892-35.20635l-6.917-6.91731a7.72112 7.72112 0 0 1 -.00013-10.919l.39385-.39389a7.72113 7.72113 0 0 1 10.91946-.00034l6.84911 6.84886a74.2343 74.2343 0 0 1 21.85357 47.10884 72.90917 72.90917 0 0 1 -13.349 47.52613 8.01409 8.01409 0 0 1 -11.94261 1.27095z"/><rect height="16" rx="7.721" width="24.292" x="312" y="408"/><path d="m264.161 399.51693a7.74553 7.74553 0 0 1 -11.30191 4.1855c-13.37204-7.85987-20.85909-22.17643-20.85909-40.533v-19.4483a7.72113 7.72113 0 0 1 7.72113-7.72113h.55774a7.72113 7.72113 0 0 1 7.72113 7.72113v19.4483c0 9.06059 2.38385 20.41415 12.82468 26.65279a7.80509 7.80509 0 0 1 3.51548 9.15709z"/><rect height="16" rx="7.721" width="23.708" x="88.292" y="400"/></g><path d="m491.08887 302.31494-140.02051-108.90478-27.49024 13.74511a8.00184 8.00184 0 0 1 -8.37792-.75537l-60.04493-45.03418-43.57715 21.78955a8.00242 8.00242 0 0 1 -9.23535-1.49853l-51.92187-51.92285-42.84278 21.42138a8.00187 8.00187 0 0 1 -8.96-1.23584l-88-80 10.76372-11.83886 83.94336 76.3125 43.09668-21.54834a8.00217 8.00217 0 0 1 9.23535 1.49853l51.92187 51.92285 42.84278-21.42236a8.00205 8.00205 0 0 1 8.37792.75537l60.04493 45.03418 27.57715-13.78857a7.9992 7.9992 0 0 1 8.48925.84033l144 112z" fill="#ed6445"/><path d="m488 379.72a28.1399 28.1399 0 0 1 -6.08008 17.52l-15.58008-15.58008a8.00449 8.00449 0 0 1 5.66016-13.65992h13.4502c.1499.29.27978.59.3999.89a28.24326 28.24326 0 0 1 2.1499 10.83z" fill="#9e593c"/></svg>