<?xml version="1.0" encoding="UTF-8"?>
<svg xmlns="http://www.w3.org/2000/svg" id="flat" viewBox="0 0 512 512" width="512" height="512"><path d="M23.99995,368l0,0a7.99987,7.99987,0,0,1-2.21884-11.09372l4.467-6.70067A34.25,34.25,0,0,0,32,331.20758v-2.22244a50.24675,50.24675,0,0,1,38.05957-48.74637l20.35059-5.08789L94.291,290.67334,73.9398,295.76139A34.24607,34.24607,0,0,0,48,328.98486v2.22257a50.24985,50.24985,0,0,1-8.43945,27.87362l-4.46677,6.70015A7.99988,7.99988,0,0,1,23.99995,368Z" style="fill:#f5a431"/><path d="M96,448l8,40H88l-8-8L69.652,459.30405a23.02288,23.02288,0,0,1,.85034-22.14131L88,408,77.3743,389.405A89.2246,89.2246,0,0,1,72,312l9.6-24h66.10743V396.29257Z" style="fill:#f5a431"/><path d="M315.13287,313.51049,337.579,343.43867a32.105,32.105,0,0,1,6.421,19.263v0a32.105,32.105,0,0,1-9.40333,22.70165L312,408l-8-16,8-24-32-16Z" style="fill:#f5a431"/><path d="M207.94635,344.03576v0a52.26136,52.26136,0,0,1-11.3984,30.27929L176,400v9.98823l40,48H192l-24-16L152.12947,435.64A38.38547,38.38547,0,0,1,128,400V384l-26.17122-18.69327a71.23256,71.23256,0,0,1-29.83015-57.9648v-.00009a71.23258,71.23258,0,0,1,48.70723-67.57728L144,232l17.41489-24.87841A129.23027,129.23027,0,0,1,267.28447,152h.00015a129.23028,129.23028,0,0,1,113.4507,67.34809L392,240l18.02528,7.72512A62.6562,62.6562,0,0,1,448,305.31526v.00007a62.6562,62.6562,0,0,1-14.52238,40.11152L408,376l-11.359,17.0385A15.63328,15.63328,0,0,1,383.63332,400h0A15.63329,15.63329,0,0,1,368,384.36671V360l0,0a40.775,40.775,0,0,1-3.37853-39.076l.00145.00064L323.829,312.7658l.0001.00006a87.45954,87.45954,0,0,1-22.83185,25.48619L272,360v88H256l-16-16V400l-14.19591-14.19591A33.47327,33.47327,0,0,1,216,362.13492v0a33.47322,33.47322,0,0,1,5.62183-18.56763L232,328Z" style="fill:#f7c04a"/><path d="M323.509,312.57645h0a7.951,7.951,0,0,1-3.20121-10.21464,79.50371,79.50371,0,0,0-15.59484-90.33544l-.715-.715a7.99684,7.99684,0,0,1-.00049-11.30876l.00444-.00444a7.99684,7.99684,0,0,1,11.30952-.00071l.715.715a95.50427,95.50427,0,0,1,18.79384,108.388A8.00884,8.00884,0,0,1,323.509,312.57645Z" style="fill:#f5a431"/><path d="M424,296l0,0a57.88422,57.88422,0,0,0,26.979,60.98733L456,360l-22.60846-5.0241A45.6323,45.6323,0,0,1,400,296.00005l0,0,4.37713-9.285a10.82446,10.82446,0,0,1,11.10583-6.12866h0a10.8245,10.8245,0,0,1,8.89525,14.33954Z" style="fill:#fcedc0"/><path d="M20.65039,198.50977l-9.30078-13.01954,56-40a8.002,8.002,0,0,1,6.84766-1.18261l51.22461,14.63574,76.6582-84.32471a8.002,8.002,0,0,1,10.16015-1.40283l58.60352,36.62744,19.499-19.5a8.00109,8.00109,0,0,1,10.21094-.9209l97.13867,67.25L489.23633,11.728,502.76367,20.272l-96,152a8.00024,8.00024,0,0,1-11.31738,2.30567l-98.51074-68.19971-19.27832,19.27881a8.00035,8.00035,0,0,1-9.89746,1.12744l-58.334-36.45947-75.50586,83.05664a8.00263,8.00263,0,0,1-8.11719,2.311L73.51074,160.752Z" style="fill:#51a37e"/><path d="M365.35368,321.24735l-.00095-.00042a8.02508,8.02508,0,0,1-3.26386-11.99953q.40065-.5672.81738-1.12289l4.77533-6.36718a8.00018,8.00018,0,0,1,11.2-1.60031l0,0a8.00018,8.00018,0,0,1,1.60038,11.20045l-4.77492,6.36664q-.31687.4224-.61994.85469A7.95844,7.95844,0,0,1,365.35368,321.24735Z" style="fill:#f5a431"/><path d="M231.99989,328.00006a7.99984,7.99984,0,0,1-10.73285-3.57753l-3.12446-6.2487a86.36521,86.36521,0,0,1,10.329-93.33933,7.98592,7.98592,0,0,1,11.81713-.54578l.00119.00119a7.96026,7.96026,0,0,1,.58909,10.64862,70.3864,70.3864,0,0,0-8.4259,76.08l3.12436,6.24849a7.99983,7.99983,0,0,1-3.57758,10.733Z" style="fill:#f5a431"/><path d="M207.631,349.91843h0a8.007,8.007,0,0,1-7.63224-8.10258c.00077-.06285.00121-.11325.00131-.14983a44.20416,44.20416,0,0,0-30.26465-41.98829l-28.6759-9.5585a7.99977,7.99977,0,0,1-5.05938-10.11944l.00017-.00052a7.99978,7.99978,0,0,1,10.11882-5.05907L174.7959,284.499A60.18385,60.18385,0,0,1,216,341.66748c0,.082-.00117.20866-.00335.37217A7.9987,7.9987,0,0,1,207.631,349.91843Z" style="fill:#f5a431"/></svg>
