<?xml version="1.0" encoding="iso-8859-1"?>
<!-- Generator: Adobe Illustrator 19.0.0, SVG Export Plug-In . SVG Version: 6.00 Build 0)  -->
<svg version="1.1" id="Capa_1" xmlns="http://www.w3.org/2000/svg" xmlns:xlink="http://www.w3.org/1999/xlink" x="0px" y="0px"
	 viewBox="0 0 512.112 512.112" style="enable-background:new 0 0 512.112 512.112;" xml:space="preserve">
<path style="fill:#019ea3;" d="M321.6,208.086l-49.6-44.16c-19.794-17.673-21.513-48.046-3.84-67.84s48.046-21.513,67.84-3.84
	l144,128c19.794,17.634,21.545,47.976,3.91,67.77c-1.227,1.378-2.533,2.683-3.91,3.91l-144,128c-8.797,7.869-20.197,12.201-32,12.16
	c-26.51,0.039-48.032-21.42-48.07-47.929c-0.02-13.717,5.829-26.786,16.07-35.911l49.6-44.16H64c-26.51,0-48-21.49-48-48
	s21.49-48,48-48H321.6z"/>
<path d="M304,448.086c-35.346,0.042-64.034-28.578-64.075-63.925c-0.022-18.293,7.786-35.721,21.451-47.883l18.176-16.192H64
	c-35.346,0-64-28.654-64-64s28.654-64,64-64h215.552l-18.208-16.192c-26.404-23.549-28.717-64.044-5.168-90.448
	s64.044-28.717,90.448-5.168l144,128c26.421,23.479,28.806,63.931,5.327,90.353c-1.67,1.879-3.448,3.658-5.327,5.327l-144,128
	C334.889,442.403,319.71,448.147,304,448.086z M64,224.086c-17.673,0-32,14.327-32,32s14.327,32,32,32h257.6
	c8.837-0.003,16.002,7.159,16.005,15.995c0.001,4.577-1.957,8.935-5.381,11.973l-49.568,44.128
	c-13.199,11.753-14.371,31.98-2.618,45.179c0.03,0.034,0.06,0.067,0.09,0.101c12.071,12.573,31.803,13.691,45.216,2.56l144-128
	c13.175-11.911,14.2-32.248,2.289-45.424c-0.724-0.801-1.488-1.565-2.289-2.289l-144-128c-13.309-11.629-33.524-10.267-45.152,3.042
	c-11.419,13.068-10.34,32.857,2.432,44.606l49.6,44.16c6.61,5.865,7.214,15.977,1.349,22.587c-3.038,3.423-7.396,5.382-11.973,5.381
	H64z"/>
<g>
</g>
<g>
</g>
<g>
</g>
<g>
</g>
<g>
</g>
<g>
</g>
<g>
</g>
<g>
</g>
<g>
</g>
<g>
</g>
<g>
</g>
<g>
</g>
<g>
</g>
<g>
</g>
<g>
</g>
</svg>
